# xmcd
#
# Track frame offsets:
#	150
#	13777
#	29205
#	45577
#	61432
#	76060
#	92472
#	106285
#	121275
#	136730
#	153080
#	169437
#	184652
#	204135
#
# Disc length: 2902
#
# Revision: 1
# Processed by: cddbd v1.5.1PL0 Copyright (c) Steve Scherf et al.
# Submitted via: VisiTrax 2.9.3.171 - For more info visit www.synapsa.com
# Normalized: r0:DSETVAR1
#
DISCID=ac0b540e
DTITLE=Various Artist - Mr Music Country 3-02
DYEAR=1900
DGENRE=
TTITLE0=Waylon Jennings - Good Hearted Woman
TTITLE1=Phil Vassar - Joe and Rosalita
TTITLE2=Bellamy Brothers with Eduardo Araujo - The Vertical Expression Of Horizontal Desire
TTITLE3=Dallas Wayne - Shadows Of My Mind
TTITLE4=Kim Novas - How Are You
TTITLE5=Tracy Byrd - How Much Does The World Weigh
TTITLE6=Joni Harms - After All
TTITLE7=Roger Cooper - Better Off a Memory
TTITLE8=Joanne Reinholdt - Twice As Much Woman
TTITLE9=Hatchett - Honky Tonk Nighttime Man
TTITLE10=Marion Randell - He's Killing Me With Those Love Songs
TTITLE11=Rayburn Anthony - Thank God It's Monday
TTITLE12=Heidi Hauge - Smokey Mountain Queen
TTITLE13=Alan Jackson - Three Minute Positive Not Too Country Up-Tempo Love Song
EXTD=
EXTT0=
EXTT1=
EXTT2=
EXTT3=
EXTT4=
EXTT5=
EXTT6=
EXTT7=
EXTT8=
EXTT9=
EXTT10=
EXTT11=
EXTT12=
EXTT13=
PLAYORDER=
